<?xml version="1.0" standalone="no"?>
<svg xmlns="http://www.w3.org/2000/svg" viewBox="0 0 44.149 50.979" width="44.149" height="50.979"><polygon fill="none" stroke="#e1a513" stroke-width="3" points="42.649,13.49475 42.649,37.48425 22.0745,49.479 1.5,37.48425 1.5,13.49475 22.0745,1.5"></polygon><path fill="#2f2e2e" fill-rule="nonzero" d="M0 16.14L0 16.14Q0 15.49 0.08 14.95Q0.15 14.40 0.30 13.77L0.30 13.77L2.66 13.77L2.66 14.74Q2.66 15.55 2.76 16.17Q2.86 16.79 3.09 17.22Q3.32 17.65 3.70 17.87Q4.08 18.08 4.63 18.08L4.63 18.08Q5.50 18.08 5.95 17.61Q6.41 17.13 6.41 16.22L6.41 16.22Q6.41 15.75 6.35 15.36Q6.28 14.96 6.12 14.58Q5.96 14.19 5.70 13.76Q5.43 13.34 5.00 12.81L5.00 12.81L1.84 9.05Q1.00 7.97 0.54 6.87Q0.08 5.78 0.08 4.54L0.08 4.54Q0.08 3.54 0.39 2.71Q0.70 1.88 1.29 1.27Q1.88 0.67 2.74 0.33Q3.60 0 4.69 0L4.69 0Q6.01 0 6.90 0.38Q7.78 0.75 8.31 1.36Q8.84 1.97 9.05 2.72Q9.27 3.48 9.27 4.24L9.27 4.24Q9.27 4.89 9.17 5.43Q9.07 5.98 8.94 6.63L8.94 6.63L6.60 6.63L6.60 5.68Q6.60 4.09 6.14 3.24Q5.68 2.39 4.65 2.39L4.65 2.39Q3.80 2.39 3.38 2.87Q2.95 3.34 2.95 4.14L2.95 4.14Q2.95 4.56 3.02 4.90Q3.08 5.24 3.21 5.53Q3.33 5.81 3.50 6.08Q3.68 6.35 3.90 6.64L3.90 6.64L7.43 10.91Q8.39 12.16 8.91 13.32Q9.42 14.47 9.42 15.76L9.42 15.76Q9.42 16.83 9.09 17.68Q8.75 18.54 8.13 19.14Q7.51 19.73 6.63 20.06Q5.75 20.38 4.65 20.38L4.65 20.38Q3.29 20.38 2.40 20.02Q1.50 19.65 0.97 19.05Q0.43 18.46 0.22 17.70Q0 16.93 0 16.14ZM11.98 20.19L11.98 0.18L15.01 0.18L15.01 17.80L19.15 17.80L19.15 20.19L11.98 20.19Z" transform="translate(12.501, 15.301)"></path></svg>