<?xml version="1.0" standalone="no"?>
<svg xmlns="http://www.w3.org/2000/svg" width="244.80802086126317" height="87.43372872555506" viewBox="0 0 244.80802086126317 87.43372872555506"><g fill="#e1a513" color="#e1a513" transform="translate(0 0) scale(1.7143869)"><svg width="44.0" height="51.0" x="0.0" y="0.0" viewBox="0 0 44 51"><path fill="currentColor" fill-rule="evenodd" d="M21.998 0L0 12.571v25.143l4.19 2.395V15.002L21.999 4.827 39.81 15.002v20.28L21.998 45.459l-9.427-5.388V19.865l9.427-5.386 9.43 5.386v10.553l-9.43 5.387-1.045-.597V24.73l5.268-3.012-4.223-2.413-5.236 2.994v15.34l5.236 2.993 13.62-7.784V17.435l-13.62-7.781-13.617 7.78v25.068l13.617 7.784L44 37.714V12.571z"></path></svg></g><path fill="#2f2e2e" fill-rule="nonzero" d="M0 33.59L0 33.59Q0 32.52 0.13 31.61Q0.25 30.70 0.51 29.65L0.51 29.65L4.43 29.65L4.43 31.27Q4.43 32.62 4.60 33.65Q4.77 34.69 5.15 35.40Q5.53 36.11 6.16 36.47Q6.80 36.84 7.71 36.84L7.71 36.84Q9.16 36.84 9.92 36.04Q10.68 35.25 10.68 33.73L10.68 33.73Q10.68 32.95 10.58 32.29Q10.47 31.64 10.21 31.00Q9.94 30.35 9.49 29.64Q9.04 28.93 8.34 28.05L8.34 28.05L3.07 21.78Q1.66 19.98 0.90 18.15Q0.14 16.33 0.14 14.26L0.14 14.26Q0.14 12.60 0.65 11.21Q1.17 9.82 2.15 8.82Q3.13 7.81 4.56 7.26Q6.00 6.70 7.81 6.70L7.81 6.70Q10.02 6.70 11.49 7.32Q12.97 7.95 13.85 8.96Q14.73 9.98 15.09 11.24Q15.45 12.50 15.45 13.77L15.45 13.77Q15.45 14.84 15.28 15.75Q15.12 16.66 14.90 17.75L14.90 17.75L11.00 17.75L11.00 16.17Q11.00 13.52 10.23 12.10Q9.47 10.68 7.75 10.68L7.75 10.68Q6.33 10.68 5.63 11.47Q4.92 12.27 4.92 13.59L4.92 13.59Q4.92 14.30 5.03 14.86Q5.14 15.43 5.34 15.91Q5.55 16.39 5.84 16.84Q6.13 17.29 6.50 17.77L6.50 17.77L12.38 24.88Q13.98 26.97 14.84 28.90Q15.70 30.82 15.70 32.97L15.70 32.97Q15.70 34.75 15.15 36.17Q14.59 37.60 13.55 38.59Q12.52 39.59 11.05 40.13Q9.59 40.66 7.75 40.66L7.75 40.66Q5.49 40.66 3.99 40.06Q2.50 39.45 1.61 38.46Q0.72 37.46 0.36 36.19Q0 34.92 0 33.59ZM19.96 40.35L19.96 6.99L32.32 6.99L32.32 10.98L25.02 10.98L25.02 20.96L30.66 20.96L30.66 24.94L25.02 24.94L25.02 36.37L32.52 36.37L32.52 40.35L19.96 40.35ZM26.46 6.50L24.41 4.22L30.68 0L33.20 3.26L26.46 6.50ZM36.17 40.35L36.17 6.99L41.29 6.99Q42.42 6.99 43.63 7.07Q44.84 7.15 46.00 7.40Q47.15 7.66 48.18 8.15Q49.22 8.65 49.99 9.49Q50.76 10.33 51.22 11.57Q51.68 12.81 51.68 14.55L51.68 14.55L51.68 16.17Q51.68 17.50 51.30 18.61Q50.92 19.73 50.29 20.58Q49.67 21.43 48.87 21.98Q48.07 22.54 47.23 22.73L47.23 22.73L47.23 22.89Q49.71 23.34 50.97 25.24Q52.23 27.15 52.23 30.12L52.23 30.12L52.23 31.82Q52.23 33.63 51.83 34.97Q51.43 36.31 50.70 37.26Q49.98 38.20 48.98 38.81Q47.99 39.41 46.80 39.76Q45.61 40.10 44.26 40.22Q42.91 40.35 41.48 40.35L41.48 40.35L36.17 40.35ZM41.13 21.27L42.11 21.27Q43.13 21.27 43.96 21.03Q44.80 20.78 45.40 20.26Q46.00 19.75 46.32 18.92Q46.64 18.09 46.64 16.91L46.64 16.91L46.64 15.55Q46.64 14.38 46.41 13.48Q46.17 12.58 45.63 11.95Q45.10 11.33 44.23 11.01Q43.36 10.68 42.11 10.68L42.11 10.68L41.13 10.68L41.13 21.27ZM41.13 36.84L42.58 36.84Q43.59 36.84 44.42 36.57Q45.25 36.31 45.85 35.75Q46.45 35.20 46.77 34.34Q47.09 33.48 47.09 32.30L47.09 32.30L47.09 29.71Q47.09 28.54 46.86 27.63Q46.62 26.72 46.08 26.10Q45.55 25.49 44.69 25.17Q43.83 24.84 42.58 24.84L42.58 24.84L41.13 24.84L41.13 36.84ZM54.14 40.35L60.29 6.99L66.11 6.99L72.29 40.35L67.17 40.35L66.25 34.38L60.16 34.38L59.28 40.35L54.14 40.35ZM60.74 30.57L65.66 30.57L63.32 13.95L63.11 13.95L60.74 30.57ZM74.22 33.59L74.22 33.59Q74.22 32.52 74.35 31.61Q74.47 30.70 74.73 29.65L74.73 29.65L78.65 29.65L78.65 31.27Q78.65 32.62 78.82 33.65Q78.98 34.69 79.37 35.40Q79.75 36.11 80.38 36.47Q81.02 36.84 81.93 36.84L81.93 36.84Q83.38 36.84 84.14 36.04Q84.90 35.25 84.90 33.73L84.90 33.73Q84.90 32.95 84.79 32.29Q84.69 31.64 84.42 31.00Q84.16 30.35 83.71 29.64Q83.26 28.93 82.56 28.05L82.56 28.05L77.29 21.78Q75.88 19.98 75.12 18.15Q74.36 16.33 74.36 14.26L74.36 14.26Q74.36 12.60 74.87 11.21Q75.39 9.82 76.37 8.82Q77.34 7.81 78.78 7.26Q80.21 6.70 82.03 6.70L82.03 6.70Q84.24 6.70 85.71 7.32Q87.19 7.95 88.07 8.96Q88.95 9.98 89.31 11.24Q89.67 12.50 89.67 13.77L89.67 13.77Q89.67 14.84 89.50 15.75Q89.34 16.66 89.12 17.75L89.12 17.75L85.21 17.75L85.21 16.17Q85.21 13.52 84.45 12.10Q83.69 10.68 81.97 10.68L81.97 10.68Q80.55 10.68 79.84 11.47Q79.14 12.27 79.14 13.59L79.14 13.59Q79.14 14.30 79.25 14.86Q79.36 15.43 79.56 15.91Q79.77 16.39 80.06 16.84Q80.35 17.29 80.72 17.77L80.72 17.77L86.60 24.88Q88.20 26.97 89.06 28.90Q89.92 30.82 89.92 32.97L89.92 32.97Q89.92 34.75 89.37 36.17Q88.81 37.60 87.77 38.59Q86.74 39.59 85.27 40.13Q83.81 40.66 81.97 40.66L81.97 40.66Q79.71 40.66 78.21 40.06Q76.72 39.45 75.83 38.46Q74.94 37.46 74.58 36.19Q74.22 34.92 74.22 33.59ZM97.27 40.35L97.27 10.98L91.89 10.98L91.89 6.99L107.68 6.99L107.68 10.98L102.32 10.98L102.32 40.35L97.27 40.35ZM111.09 40.35L111.09 6.99L116.15 6.99L116.15 40.35L111.09 40.35ZM121.86 40.35L121.86 6.99L134.22 6.99L134.22 10.98L126.91 10.98L126.91 20.96L132.56 20.96L132.56 24.94L126.91 24.94L126.91 36.37L134.41 36.37L134.41 40.35L121.86 40.35ZM138.07 40.35L138.07 6.99L142.17 6.99L150.25 29.32L150.37 29.32Q150.31 28.54 150.21 27.58Q150.12 26.62 150.04 25.40Q149.96 24.18 149.90 22.64Q149.84 21.09 149.84 19.16L149.84 19.16L149.84 6.99L154.38 6.99L154.38 40.35L150.23 40.35L142.19 18.61L142.03 18.61Q142.09 19.49 142.19 20.52Q142.29 21.54 142.36 22.93Q142.44 24.32 142.50 26.16Q142.56 28.01 142.56 30.55L142.56 30.55L142.56 40.35L138.07 40.35Z" transform="translate(90.434 0) scale(1)"></path><path fill="#2f2e2e" fill-rule="nonzero" d="M0 33.36L0 0L5.06 0L5.06 29.38L11.95 29.38L11.95 33.36L0 33.36ZM12.68 33.36L18.83 0L24.65 0L30.82 33.36L25.70 33.36L24.79 27.38L18.69 27.38L17.81 33.36L12.68 33.36ZM19.28 23.57L24.20 23.57L21.86 6.95L21.64 6.95L19.28 23.57ZM34.04 33.36L34.04 0L40.64 0L43.85 12.91Q44.36 15.06 44.65 17.00Q44.94 18.95 45.21 20.66L45.21 20.66L45.37 20.66Q45.64 18.95 45.94 17.00Q46.23 15.06 46.74 12.91L46.74 12.91L50.04 0L56.50 0L56.50 33.36L51.78 33.36L51.78 22.32Q51.78 19.79 51.83 17.44Q51.88 15.10 51.95 13.13Q52.03 11.17 52.13 9.67Q52.23 8.16 52.30 7.29L52.30 7.29L51.93 7.29L46.89 29.06L43.69 29.06L38.61 7.29L38.24 7.29Q38.32 8.16 38.42 9.67Q38.52 11.17 38.59 13.13Q38.67 15.10 38.72 17.44Q38.77 19.79 38.77 22.32L38.77 22.32L38.77 33.36L34.04 33.36ZM62.21 33.36L62.21 0L67.32 0Q68.46 0 69.67 0.08Q70.88 0.16 72.03 0.41Q73.18 0.66 74.22 1.16Q75.25 1.66 76.03 2.50Q76.80 3.34 77.26 4.58Q77.71 5.82 77.71 7.56L77.71 7.56L77.71 9.18Q77.71 10.51 77.33 11.62Q76.95 12.73 76.33 13.58Q75.70 14.43 74.90 14.99Q74.10 15.55 73.26 15.74L73.26 15.74L73.26 15.90Q75.74 16.35 77.00 18.25Q78.26 20.16 78.26 23.13L78.26 23.13L78.26 24.82Q78.26 26.64 77.86 27.98Q77.46 29.32 76.74 30.26Q76.02 31.21 75.02 31.82Q74.02 32.42 72.83 32.76Q71.64 33.11 70.29 33.23Q68.95 33.36 67.52 33.36L67.52 33.36L62.21 33.36ZM67.17 14.28L68.14 14.28Q69.16 14.28 70 14.03Q70.84 13.79 71.44 13.27Q72.03 12.75 72.35 11.92Q72.68 11.09 72.68 9.92L72.68 9.92L72.68 8.55Q72.68 7.38 72.44 6.48Q72.21 5.59 71.67 4.96Q71.13 4.34 70.26 4.01Q69.39 3.69 68.14 3.69L68.14 3.69L67.17 3.69L67.17 14.28ZM67.17 29.84L68.61 29.84Q69.63 29.84 70.46 29.58Q71.29 29.32 71.88 28.76Q72.48 28.20 72.80 27.34Q73.13 26.48 73.13 25.31L73.13 25.31L73.13 22.71Q73.13 21.54 72.89 20.63Q72.66 19.73 72.12 19.11Q71.58 18.50 70.72 18.17Q69.86 17.85 68.61 17.85L68.61 17.85L67.17 17.85L67.17 29.84ZM82.66 33.36L82.66 0L95.02 0L95.02 3.98L87.71 3.98L87.71 13.96L93.36 13.96L93.36 17.95L87.71 17.95L87.71 29.38L95.21 29.38L95.21 33.36L82.66 33.36ZM98.87 33.36L98.87 0L104.36 0Q105.29 0 106.42 0.08Q107.54 0.16 108.66 0.46Q109.79 0.76 110.83 1.37Q111.88 1.97 112.69 3.03Q113.50 4.08 113.98 5.67Q114.47 7.27 114.47 9.53L114.47 9.53L114.47 10.37Q114.47 14.18 113.38 16.57Q112.29 18.96 110.16 20.02L110.16 20.02L115.51 33.36L110.16 33.36L105.72 20.88L103.83 20.88L103.83 33.36L98.87 33.36ZM103.83 17.23L104.59 17.23Q105.92 17.23 106.84 16.93Q107.75 16.64 108.32 15.95Q108.89 15.25 109.14 14.11Q109.39 12.97 109.39 11.29L109.39 11.29L109.39 8.65Q109.39 7.36 109.16 6.43Q108.93 5.49 108.37 4.88Q107.81 4.28 106.89 3.98Q105.98 3.69 104.59 3.69L104.59 3.69L103.83 3.69L103.83 17.23ZM122.42 33.36L122.42 3.98L117.05 3.98L117.05 0L132.83 0L132.83 3.98L127.48 3.98L127.48 33.36L122.42 33.36Z" transform="translate(90.434 48.665) scale(1.163)"></path></svg>