<?xml version="1.0" standalone="no"?>
<svg xmlns="http://www.w3.org/2000/svg" viewBox="0 0 173 67" width="173" height="67"><g fill="#e1a513" color="#e1a513" transform="translate(72.632 0) scale(0.6078432) "><svg width="44.0" height="51.0" x="0.0" y="0.0" viewBox="0 0 44 51"><path fill="currentColor" fill-rule="evenodd" d="M21.998 0L0 12.571v25.143l4.19 2.395V15.002L21.999 4.827 39.81 15.002v20.28L21.998 45.459l-9.427-5.388V19.865l9.427-5.386 9.43 5.386v10.553l-9.43 5.387-1.045-.597V24.73l5.268-3.012-4.223-2.413-5.236 2.994v15.34l5.236 2.993 13.62-7.784V17.435l-13.62-7.781-13.617 7.78v25.068l13.617 7.784L44 37.714V12.571z"></path></svg></g><line x1="73.43371017156862" y1="37" x2="98.57410232843137" y2="37" stroke="#2f2e2e" stroke-linecap="round"></line><path fill="#2f2e2e" fill-rule="nonzero" d="M0 19.18L0 19.18Q0 18.54 0.08 17.99Q0.15 17.45 0.30 16.82L0.30 16.82L2.66 16.82L2.66 17.79Q2.66 18.60 2.76 19.22Q2.86 19.84 3.09 20.27Q3.32 20.70 3.70 20.91Q4.08 21.13 4.63 21.13L4.63 21.13Q5.50 21.13 5.95 20.65Q6.41 20.18 6.41 19.27L6.41 19.27Q6.41 18.80 6.35 18.40Q6.28 18.01 6.12 17.63Q5.96 17.24 5.70 16.81Q5.43 16.38 5.00 15.86L5.00 15.86L1.84 12.09Q1.00 11.02 0.54 9.92Q0.08 8.82 0.08 7.58L0.08 7.58Q0.08 6.59 0.39 5.75Q0.70 4.92 1.29 4.32Q1.88 3.71 2.74 3.38Q3.60 3.05 4.69 3.05L4.69 3.05Q6.01 3.05 6.90 3.42Q7.78 3.80 8.31 4.41Q8.84 5.02 9.05 5.77Q9.27 6.53 9.27 7.29L9.27 7.29Q9.27 7.93 9.17 8.48Q9.07 9.02 8.94 9.68L8.94 9.68L6.60 9.68L6.60 8.73Q6.60 7.14 6.14 6.29Q5.68 5.44 4.65 5.44L4.65 5.44Q3.80 5.44 3.38 5.91Q2.95 6.39 2.95 7.18L2.95 7.18Q2.95 7.61 3.02 7.95Q3.08 8.29 3.21 8.57Q3.33 8.86 3.50 9.13Q3.68 9.40 3.90 9.69L3.90 9.69L7.43 13.96Q8.39 15.21 8.91 16.37Q9.42 17.52 9.42 18.81L9.42 18.81Q9.42 19.88 9.09 20.73Q8.75 21.59 8.13 22.18Q7.51 22.78 6.63 23.10Q5.75 23.43 4.65 23.43L4.65 23.43Q3.29 23.43 2.40 23.06Q1.50 22.70 0.97 22.10Q0.43 21.50 0.22 20.74Q0 19.98 0 19.18ZM15.75 23.41L15.75 23.41Q14.71 23.41 13.90 23.03Q13.10 22.64 12.55 21.82Q12 21 11.72 19.72Q11.44 18.43 11.44 16.63L11.44 16.63L11.44 13.58Q11.44 12.05 11.67 10.95Q11.89 9.86 12.26 9.11Q12.63 8.37 13.12 7.93Q13.61 7.50 14.12 7.27Q14.64 7.04 15.15 6.98Q15.66 6.91 16.09 6.91L16.09 6.91Q16.89 6.91 17.63 7.15Q18.36 7.39 18.93 7.97Q19.49 8.55 19.82 9.53Q20.16 10.50 20.16 11.95L20.16 11.95Q20.16 12.45 20.13 12.95Q20.10 13.45 20.05 13.94Q20.00 14.43 19.93 14.88Q19.85 15.34 19.77 15.73L19.77 15.73L14.41 15.73L14.41 17.37Q14.41 18.42 14.50 19.14Q14.58 19.86 14.77 20.30Q14.96 20.74 15.30 20.94Q15.63 21.13 16.14 21.13L16.14 21.13Q16.41 21.13 16.66 21.02Q16.92 20.91 17.12 20.65Q17.31 20.39 17.43 19.96Q17.54 19.54 17.54 18.90L17.54 18.90L17.54 18.40L20.02 18.40L20.02 19.02Q20.02 21.32 18.92 22.37Q17.82 23.41 15.75 23.41ZM14.41 13.73L17.39 13.73Q17.40 13.61 17.41 13.39Q17.43 13.17 17.43 12.94Q17.44 12.70 17.44 12.47Q17.44 12.25 17.44 12.08L17.44 12.08Q17.44 10.49 17.06 9.79Q16.69 9.08 15.95 9.08L15.95 9.08Q15.56 9.08 15.27 9.26Q14.98 9.45 14.79 9.87Q14.60 10.30 14.51 11.00Q14.41 11.71 14.41 12.75L14.41 12.75L14.41 13.73ZM15.96 6.11L14.50 4.88L17.89 0L19.88 1.61L15.96 6.11ZM22.62 23.24L22.62 1.92L25.58 1.92L25.58 6.22L25.49 8.36L25.50 8.37Q25.70 8.09 25.96 7.83Q26.23 7.57 26.56 7.37Q26.89 7.16 27.30 7.04Q27.70 6.93 28.18 6.93L28.18 6.93Q28.43 6.93 28.78 6.97Q29.12 7.02 29.49 7.21Q29.86 7.39 30.23 7.76Q30.60 8.13 30.88 8.78Q31.17 9.42 31.35 10.38Q31.54 11.34 31.54 12.71L31.54 12.71L31.54 17.60Q31.54 18.97 31.35 19.93Q31.17 20.89 30.88 21.54Q30.59 22.20 30.21 22.57Q29.84 22.95 29.45 23.13Q29.06 23.32 28.70 23.37Q28.34 23.43 28.07 23.43L28.07 23.43Q27.50 23.43 27.05 23.29Q26.60 23.14 26.26 22.90Q25.91 22.66 25.65 22.36Q25.38 22.05 25.18 21.74L25.18 21.74L24.94 23.24L22.62 23.24ZM25.58 10.17L25.58 19.97Q25.68 20.19 25.81 20.40Q25.95 20.61 26.12 20.77Q26.30 20.93 26.53 21.03Q26.77 21.13 27.06 21.13L27.06 21.13Q27.39 21.13 27.66 21.01Q27.93 20.88 28.13 20.56Q28.32 20.24 28.44 19.66Q28.55 19.09 28.55 18.19L28.55 18.19L28.55 12.01Q28.55 11.11 28.44 10.54Q28.32 9.97 28.13 9.64Q27.94 9.32 27.67 9.20Q27.40 9.08 27.07 9.08L27.07 9.08Q26.52 9.08 26.16 9.40Q25.80 9.73 25.58 10.17L25.58 10.17ZM36.43 23.41L36.43 23.41Q35.68 23.41 35.10 23.12Q34.52 22.82 34.13 22.30Q33.73 21.79 33.52 21.08Q33.32 20.37 33.32 19.54L33.32 19.54Q33.32 18.54 33.56 17.77Q33.81 16.99 34.28 16.37Q34.76 15.75 35.46 15.24Q36.16 14.73 37.09 14.27L37.09 14.27Q37.54 14.05 38.09 13.82Q38.65 13.59 39.08 13.43L39.08 13.43L39.08 11.30Q39.08 10.83 39.05 10.42Q39.01 10.02 38.88 9.72Q38.74 9.42 38.47 9.25Q38.20 9.08 37.73 9.08L37.73 9.08Q37.42 9.08 37.12 9.20Q36.82 9.32 36.59 9.60Q36.36 9.88 36.23 10.35Q36.09 10.82 36.09 11.51L36.09 11.51L36.09 12.21L33.83 12.21Q33.73 11.75 33.67 11.37Q33.62 10.99 33.62 10.62L33.62 10.62Q33.62 9.71 33.93 9.02Q34.24 8.33 34.80 7.86Q35.36 7.39 36.13 7.15Q36.90 6.91 37.83 6.91L37.83 6.91Q39.04 6.91 39.83 7.18Q40.63 7.44 41.10 7.97Q41.58 8.50 41.77 9.29Q41.96 10.09 41.96 11.16L41.96 11.16L41.96 23.24L39.76 23.24L39.55 21.86Q39.07 22.55 38.27 22.98Q37.46 23.41 36.43 23.41ZM37.75 21.13L37.75 21.13Q38.12 21.13 38.48 20.94Q38.84 20.74 39.08 20.46L39.08 20.46L39.08 15.41Q38.85 15.50 38.55 15.63Q38.26 15.76 37.92 15.97L37.92 15.97Q37.61 16.17 37.30 16.45Q37.00 16.73 36.76 17.12Q36.52 17.51 36.37 17.99Q36.22 18.48 36.22 19.08L36.22 19.08Q36.22 20.00 36.59 20.57Q36.95 21.13 37.75 21.13ZM44.40 19.86L44.40 19.86Q44.40 19.34 44.50 18.84Q44.60 18.35 44.70 18.06L44.70 18.06L46.78 18.06Q46.78 18.94 46.87 19.53Q46.96 20.12 47.16 20.47Q47.36 20.82 47.69 20.98Q48.02 21.13 48.50 21.13L48.50 21.13Q49.17 21.13 49.48 20.75Q49.78 20.38 49.78 19.89L49.78 19.89Q49.78 19.63 49.71 19.39Q49.64 19.16 49.51 18.92Q49.38 18.68 49.20 18.43Q49.01 18.19 48.77 17.89L48.77 17.89L46.61 15.34Q46.18 14.81 45.79 14.27Q45.40 13.72 45.10 13.14Q44.80 12.56 44.62 11.93Q44.44 11.30 44.44 10.59L44.44 10.59Q44.44 9.66 44.76 8.96Q45.08 8.27 45.63 7.82Q46.17 7.36 46.89 7.14Q47.60 6.91 48.40 6.91L48.40 6.91Q49.28 6.91 49.98 7.13Q50.68 7.34 51.19 7.76Q51.69 8.18 51.96 8.81Q52.23 9.43 52.23 10.27L52.23 10.27Q52.23 10.83 52.13 11.36Q52.03 11.88 51.94 12.26L51.94 12.26L49.89 12.26Q49.88 11.46 49.82 10.86Q49.76 10.27 49.60 9.87Q49.44 9.48 49.17 9.28Q48.89 9.08 48.45 9.08L48.45 9.08Q48.06 9.08 47.80 9.21Q47.54 9.33 47.38 9.53Q47.23 9.73 47.16 9.97Q47.10 10.22 47.10 10.48L47.10 10.48Q47.10 11.04 47.37 11.52Q47.64 12 48.08 12.56L48.08 12.56L50.45 15.34Q50.71 15.66 51.05 16.11Q51.39 16.56 51.69 17.10Q52.00 17.65 52.21 18.29Q52.42 18.94 52.42 19.64L52.42 19.64Q52.42 20.50 52.15 21.19Q51.88 21.89 51.35 22.38Q50.82 22.88 50.06 23.14Q49.29 23.41 48.30 23.41L48.30 23.41Q47.50 23.41 46.78 23.23Q46.07 23.05 45.54 22.63Q45.01 22.22 44.71 21.54Q44.40 20.86 44.40 19.86ZM55.09 19.22L55.09 9.21L53.84 9.21L53.84 7.10L55.35 7.10L55.95 2.92L58.05 2.92L58.05 7.10L60.63 7.10L60.63 9.21L58.05 9.21L58.05 19.48Q58.05 20.00 58.15 20.33Q58.25 20.65 58.43 20.83Q58.61 21.01 58.84 21.07Q59.07 21.13 59.33 21.13L59.33 21.13Q59.77 21.13 60.10 21.02Q60.43 20.92 60.74 20.73L60.74 20.73L60.74 22.37Q60.48 22.69 60.18 22.89Q59.88 23.09 59.57 23.21Q59.25 23.33 58.92 23.38Q58.59 23.43 58.28 23.43L58.28 23.43Q57.66 23.43 57.08 23.26Q56.51 23.10 56.06 22.63Q55.62 22.17 55.35 21.35Q55.09 20.53 55.09 19.22L55.09 19.22ZM64.24 4.79L64.24 4.79Q63.42 4.79 62.95 4.30Q62.47 3.81 62.47 2.86L62.47 2.86Q62.47 2.33 62.60 1.97Q62.72 1.62 62.95 1.40Q63.18 1.18 63.50 1.08Q63.83 0.98 64.25 0.98L64.25 0.98Q65.13 0.98 65.59 1.43Q66.05 1.88 66.05 2.86L66.05 2.86Q66.05 3.77 65.58 4.28Q65.12 4.79 64.24 4.79ZM62.71 23.24L62.71 7.10L65.67 7.10L65.67 23.24L62.71 23.24ZM72.66 23.41L72.66 23.41Q71.61 23.41 70.81 23.03Q70.01 22.64 69.46 21.82Q68.91 21 68.63 19.72Q68.34 18.43 68.34 16.63L68.34 16.63L68.34 13.58Q68.34 12.05 68.57 10.95Q68.80 9.86 69.17 9.11Q69.54 8.37 70.03 7.93Q70.51 7.50 71.03 7.27Q71.54 7.04 72.05 6.98Q72.56 6.91 73.00 6.91L73.00 6.91Q73.79 6.91 74.53 7.15Q75.27 7.39 75.83 7.97Q76.39 8.55 76.73 9.53Q77.06 10.50 77.06 11.95L77.06 11.95Q77.06 12.45 77.03 12.95Q77.00 13.45 76.96 13.94Q76.91 14.43 76.83 14.88Q76.76 15.34 76.68 15.73L76.68 15.73L71.32 15.73L71.32 17.37Q71.32 18.42 71.40 19.14Q71.48 19.86 71.68 20.30Q71.87 20.74 72.21 20.94Q72.54 21.13 73.04 21.13L73.04 21.13Q73.31 21.13 73.57 21.02Q73.83 20.91 74.02 20.65Q74.21 20.39 74.33 19.96Q74.45 19.54 74.45 18.90L74.45 18.90L74.45 18.40L76.92 18.40L76.92 19.02Q76.92 21.32 75.83 22.37Q74.73 23.41 72.66 23.41ZM71.32 13.73L74.30 13.73Q74.31 13.61 74.32 13.39Q74.33 13.17 74.34 12.94Q74.34 12.70 74.34 12.47Q74.34 12.25 74.34 12.08L74.34 12.08Q74.34 10.49 73.97 9.79Q73.59 9.08 72.86 9.08L72.86 9.08Q72.47 9.08 72.18 9.26Q71.88 9.45 71.70 9.87Q71.51 10.30 71.41 11.00Q71.32 11.71 71.32 12.75L71.32 12.75L71.32 13.73ZM79.57 23.24L79.57 7.10L81.86 7.10L82.13 8.82L82.13 8.84Q82.48 8.29 82.88 7.92Q83.29 7.55 83.72 7.32Q84.15 7.10 84.60 7.01Q85.05 6.91 85.50 6.91L85.50 6.91Q86.92 6.91 87.69 7.90Q88.45 8.89 88.45 10.88L88.45 10.88L88.45 23.24L85.49 23.24L85.49 10.98Q85.49 9.91 85.16 9.50Q84.83 9.08 84.20 9.08L84.20 9.08Q83.75 9.08 83.31 9.38Q82.88 9.67 82.54 10.18L82.54 10.18L82.54 23.24L79.57 23.24ZM96.84 23.24L96.84 3.22L99.88 3.22L99.88 20.85L104.02 20.85L104.02 23.24L96.84 23.24ZM107.98 23.41L107.98 23.41Q107.23 23.41 106.65 23.12Q106.07 22.82 105.67 22.30Q105.27 21.79 105.06 21.08Q104.86 20.37 104.86 19.54L104.86 19.54Q104.86 18.54 105.11 17.77Q105.35 16.99 105.83 16.37Q106.30 15.75 107.00 15.24Q107.71 14.73 108.63 14.27L108.63 14.27Q109.08 14.05 109.63 13.82Q110.19 13.59 110.63 13.43L110.63 13.43L110.63 11.30Q110.63 10.83 110.59 10.42Q110.55 10.02 110.42 9.72Q110.29 9.42 110.02 9.25Q109.75 9.08 109.28 9.08L109.28 9.08Q108.96 9.08 108.66 9.20Q108.36 9.32 108.13 9.60Q107.91 9.88 107.77 10.35Q107.64 10.82 107.64 11.51L107.64 11.51L107.64 12.21L105.38 12.21Q105.27 11.75 105.22 11.37Q105.16 10.99 105.16 10.62L105.16 10.62Q105.16 9.71 105.47 9.02Q105.79 8.33 106.34 7.86Q106.90 7.39 107.67 7.15Q108.45 6.91 109.37 6.91L109.37 6.91Q110.58 6.91 111.38 7.18Q112.17 7.44 112.65 7.97Q113.12 8.50 113.31 9.29Q113.51 10.09 113.51 11.16L113.51 11.16L113.51 23.24L111.30 23.24L111.09 21.86Q110.61 22.55 109.81 22.98Q109.01 23.41 107.98 23.41ZM109.29 21.13L109.29 21.13Q109.66 21.13 110.02 20.94Q110.38 20.74 110.63 20.46L110.63 20.46L110.63 15.41Q110.39 15.50 110.10 15.63Q109.80 15.76 109.46 15.97L109.46 15.97Q109.15 16.17 108.84 16.45Q108.54 16.73 108.30 17.12Q108.06 17.51 107.91 17.99Q107.77 18.48 107.77 19.08L107.77 19.08Q107.77 20.00 108.13 20.57Q108.49 21.13 109.29 21.13ZM116.58 23.24L116.58 7.10L118.88 7.10L119.13 8.82L119.13 8.84Q119.48 8.29 119.88 7.92Q120.28 7.55 120.71 7.32Q121.14 7.10 121.59 7.01Q122.04 6.91 122.48 6.91L122.48 6.91Q123.43 6.91 124.09 7.37Q124.75 7.83 125.09 8.74L125.09 8.74Q125.44 8.21 125.83 7.86Q126.22 7.51 126.64 7.30Q127.07 7.09 127.50 7.00Q127.93 6.91 128.38 6.91L128.38 6.91Q129.79 6.91 130.55 7.90Q131.32 8.89 131.32 10.88L131.32 10.88L131.32 23.24L128.36 23.24L128.36 10.98Q128.36 10.45 128.27 10.09Q128.19 9.73 128.03 9.50Q127.86 9.28 127.61 9.18Q127.35 9.08 126.98 9.08L126.98 9.08Q126.57 9.08 126.16 9.38Q125.75 9.68 125.41 10.21L125.41 10.21Q125.43 10.31 125.43 10.42Q125.43 10.52 125.43 10.63L125.43 10.63L125.43 23.24L122.46 23.24L122.46 10.98Q122.46 10.45 122.38 10.09Q122.30 9.73 122.13 9.50Q121.97 9.28 121.71 9.18Q121.45 9.08 121.09 9.08L121.09 9.08Q120.69 9.08 120.28 9.38Q119.87 9.67 119.54 10.18L119.54 10.18L119.54 23.24L116.58 23.24ZM134.39 23.24L134.39 1.92L137.36 1.92L137.36 6.22L137.26 8.36L137.27 8.37Q137.47 8.09 137.74 7.83Q138 7.57 138.33 7.37Q138.67 7.16 139.07 7.04Q139.48 6.93 139.96 6.93L139.96 6.93Q140.20 6.93 140.55 6.97Q140.89 7.02 141.26 7.21Q141.63 7.39 142.00 7.76Q142.37 8.13 142.66 8.78Q142.95 9.42 143.13 10.38Q143.31 11.34 143.31 12.71L143.31 12.71L143.31 17.60Q143.31 18.97 143.13 19.93Q142.95 20.89 142.65 21.54Q142.36 22.20 141.98 22.57Q141.61 22.95 141.22 23.13Q140.84 23.32 140.47 23.37Q140.11 23.43 139.84 23.43L139.84 23.43Q139.28 23.43 138.83 23.29Q138.38 23.14 138.03 22.90Q137.68 22.66 137.42 22.36Q137.16 22.05 136.96 21.74L136.96 21.74L136.71 23.24L134.39 23.24ZM137.36 10.17L137.36 19.97Q137.45 20.19 137.58 20.40Q137.72 20.61 137.89 20.77Q138.07 20.93 138.30 21.03Q138.54 21.13 138.83 21.13L138.83 21.13Q139.16 21.13 139.43 21.01Q139.70 20.88 139.90 20.56Q140.10 20.24 140.21 19.66Q140.32 19.09 140.32 18.19L140.32 18.19L140.32 12.01Q140.32 11.11 140.21 10.54Q140.10 9.97 139.90 9.64Q139.71 9.32 139.44 9.20Q139.17 9.08 138.84 9.08L138.84 9.08Q138.29 9.08 137.94 9.40Q137.58 9.73 137.36 10.17L137.36 10.17ZM149.87 23.41L149.87 23.41Q148.83 23.41 148.03 23.03Q147.22 22.64 146.67 21.82Q146.12 21 145.84 19.72Q145.56 18.43 145.56 16.63L145.56 16.63L145.56 13.58Q145.56 12.05 145.79 10.95Q146.02 9.86 146.38 9.11Q146.75 8.37 147.24 7.93Q147.73 7.50 148.24 7.27Q148.76 7.04 149.27 6.98Q149.78 6.91 150.21 6.91L150.21 6.91Q151.01 6.91 151.75 7.15Q152.48 7.39 153.05 7.97Q153.61 8.55 153.94 9.53Q154.28 10.50 154.28 11.95L154.28 11.95Q154.28 12.45 154.25 12.95Q154.22 13.45 154.17 13.94Q154.13 14.43 154.05 14.88Q153.97 15.34 153.89 15.73L153.89 15.73L148.54 15.73L148.54 17.37Q148.54 18.42 148.62 19.14Q148.70 19.86 148.89 20.30Q149.09 20.74 149.42 20.94Q149.75 21.13 150.26 21.13L150.26 21.13Q150.53 21.13 150.79 21.02Q151.04 20.91 151.24 20.65Q151.43 20.39 151.55 19.96Q151.66 19.54 151.66 18.90L151.66 18.90L151.66 18.40L154.14 18.40L154.14 19.02Q154.14 21.32 153.04 22.37Q151.95 23.41 149.87 23.41ZM148.54 13.73L151.51 13.73Q151.52 13.61 151.54 13.39Q151.55 13.17 151.55 12.94Q151.56 12.70 151.56 12.47Q151.56 12.25 151.56 12.08L151.56 12.08Q151.56 10.49 151.18 9.79Q150.81 9.08 150.07 9.08L150.07 9.08Q149.68 9.08 149.39 9.26Q149.10 9.45 148.91 9.87Q148.72 10.30 148.63 11.00Q148.54 11.71 148.54 12.75L148.54 12.75L148.54 13.73ZM156.79 23.24L156.79 7.10L158.95 7.10L159.21 8.74Q159.70 7.83 160.34 7.37Q160.98 6.91 161.65 6.91L161.65 6.91Q162.93 6.91 163.54 7.70Q164.14 8.48 164.14 10.05L164.14 10.05Q164.14 10.25 164.12 10.53Q164.09 10.80 164.03 11.10Q163.98 11.40 163.90 11.70Q163.83 12 163.75 12.25L163.75 12.25L161.68 12.25L161.68 10.75Q161.68 10.25 161.62 9.94Q161.55 9.62 161.45 9.43Q161.34 9.23 161.20 9.16Q161.06 9.08 160.90 9.08L160.90 9.08Q160.55 9.08 160.25 9.31Q159.95 9.54 159.75 9.95L159.75 9.95L159.75 23.24L156.79 23.24ZM166.36 19.22L166.36 9.21L165.11 9.21L165.11 7.10L166.62 7.10L167.21 2.92L169.32 2.92L169.32 7.10L171.90 7.10L171.90 9.21L169.32 9.21L169.32 19.48Q169.32 20.00 169.42 20.33Q169.52 20.65 169.70 20.83Q169.88 21.01 170.11 21.07Q170.34 21.13 170.60 21.13L170.60 21.13Q171.04 21.13 171.37 21.02Q171.70 20.92 172.01 20.73L172.01 20.73L172.01 22.37Q171.75 22.69 171.45 22.89Q171.15 23.09 170.84 23.21Q170.52 23.33 170.19 23.38Q169.86 23.43 169.55 23.43L169.55 23.43Q168.93 23.43 168.35 23.26Q167.78 23.10 167.33 22.63Q166.89 22.17 166.62 21.35Q166.36 20.53 166.36 19.22L166.36 19.22Z" transform="translate(0, 43)"></path></svg>